<svg width="50" height="50" viewBox="0 0 50 50" fill="none" xmlns="http://www.w3.org/2000/svg">
<path d="M24.5683 4.09473L12.2841 16.3788L16.3789 20.4736L24.5683 12.2841L32.7577 20.4736L36.8524 16.3788L24.5683 4.09473Z" stroke="#FFA503" stroke-width="2.8078" stroke-miterlimit="10" stroke-linecap="round" stroke-linejoin="round"/>
<path d="M24.5683 45.0419L12.2842 32.7578L16.3789 28.6631L24.5683 36.8525L32.7577 28.6631L36.8524 32.7578L24.5683 45.0419Z" stroke="#FFA503" stroke-width="2.8078" stroke-miterlimit="10" stroke-linecap="round" stroke-linejoin="round"/>
<path d="M40.5073 19.8634L35.8747 24.496L40.5073 29.1286L45.1399 24.496L40.5073 19.8634Z" stroke="#FFA503" stroke-width="2.8078" stroke-miterlimit="10" stroke-linecap="round" stroke-linejoin="round"/>
<path d="M8.77346 19.863L4.14087 24.4956L8.77346 29.1282L13.406 24.4956L8.77346 19.863Z" stroke="#FFA503" stroke-width="2.8078" stroke-miterlimit="10" stroke-linecap="round" stroke-linejoin="round"/>
<path d="M24.4231 19.5014L19.3562 24.5683L24.4231 29.6352L29.49 24.5683L24.4231 19.5014Z" stroke="#FFA503" stroke-width="2.8078" stroke-miterlimit="10" stroke-linecap="round" stroke-linejoin="round"/>
</svg>
