<svg width="50" height="50" viewBox="0 0 50 50" fill="none" xmlns="http://www.w3.org/2000/svg">
<path d="M18.4261 17.1585H28.0172C30.1433 17.1585 31.8678 19.0719 31.8678 21.0091C31.8678 23.1352 30.1433 24.8597 28.0172 24.8597H18.4261V17.1585Z" stroke="#FFA503" stroke-width="3.50975" stroke-miterlimit="10" stroke-linecap="round" stroke-linejoin="round"/>
<path d="M18.4261 24.836H29.3873C31.8205 24.836 33.7813 26.5605 33.7813 28.6866C33.7813 30.8127 31.8205 32.5372 29.3873 32.5372H18.4261V24.836Z" stroke="#FFA503" stroke-width="3.50975" stroke-miterlimit="10" stroke-linecap="round" stroke-linejoin="round"/>
<path d="M25.1352 32.5137V36.3643" stroke="#FFA503" stroke-width="3.50975" stroke-miterlimit="10" stroke-linecap="round" stroke-linejoin="round"/>
<path d="M20.3397 32.5137V36.3643" stroke="#FFA503" stroke-width="3.50975" stroke-miterlimit="10" stroke-linecap="round" stroke-linejoin="round"/>
<path d="M25.1352 13.3078V17.1584" stroke="#FFA503" stroke-width="3.50975" stroke-miterlimit="10" stroke-linecap="round" stroke-linejoin="round"/>
<path d="M20.3397 13.3078V17.1584" stroke="#FFA503" stroke-width="3.50975" stroke-miterlimit="10" stroke-linecap="round" stroke-linejoin="round"/>
<path d="M22.0642 17.1585H15.3552" stroke="#FFA503" stroke-width="3.50975" stroke-miterlimit="10" stroke-linecap="round" stroke-linejoin="round"/>
<path d="M22.0642 32.5137H15.3552" stroke="#FFA503" stroke-width="3.50975" stroke-miterlimit="10" stroke-linecap="round" stroke-linejoin="round"/>
<path d="M24.5683 45.0418C35.8755 45.0418 45.0418 35.8755 45.0418 24.5683C45.0418 13.261 35.8755 4.09473 24.5683 4.09473C13.2611 4.09473 4.09473 13.261 4.09473 24.5683C4.09473 35.8755 13.2611 45.0418 24.5683 45.0418Z" stroke="#FFA503" stroke-width="3.50975" stroke-miterlimit="10"/>
</svg>
