<svg width="50" height="50" viewBox="0 0 50 50" fill="none" xmlns="http://www.w3.org/2000/svg">
<path d="M14.1267 18.6309L23.954 14.3315C24.3635 14.1268 24.773 14.1268 25.3872 14.3315L35.2145 18.6309C36.0334 19.0404 36.8524 18.0167 36.2382 17.1978L26.0014 4.70893C25.3872 3.88999 24.1588 3.88999 23.5446 4.70893L13.3078 17.1978C12.4888 18.0167 13.3078 19.0404 14.1267 18.6309Z" stroke="#FFA503" stroke-width="2.8078" stroke-miterlimit="10" stroke-linecap="round" stroke-linejoin="round"/>
<path d="M14.1267 30.5056L23.954 34.805C24.3635 35.0098 24.773 35.0098 25.3872 34.805L35.2145 30.5056C36.0334 30.0961 36.8524 31.1198 36.2382 31.9387L26.0014 44.4276C25.3872 45.2465 24.1588 45.2465 23.5446 44.4276L13.3078 31.9387C12.4888 31.1198 13.3078 30.0961 14.1267 30.5056Z" stroke="#FFA503" stroke-width="2.8078" stroke-miterlimit="10" stroke-linecap="round" stroke-linejoin="round"/>
<path d="M24.5683 19.2451L13.922 24.5683L24.5683 29.8914L35.2145 24.5683L24.5683 19.2451Z" stroke="#FFA503" stroke-width="2.8078" stroke-miterlimit="10" stroke-linecap="round" stroke-linejoin="round"/>
</svg>
