<svg width="50" height="50" viewBox="0 0 50 50" fill="none" xmlns="http://www.w3.org/2000/svg">
<path d="M40.9471 7.16576H11.2604C10.6462 7.16576 10.032 7.37049 9.62255 7.9847L6.55152 12.0794C5.52785 13.5126 6.55152 15.3552 8.18941 15.3552H37.876C38.4902 15.3552 39.1044 15.1504 39.5139 14.5362L42.5849 10.4415C43.6086 9.00837 42.5849 7.16576 40.9471 7.16576Z" stroke="#FFA503" stroke-width="2.10585" stroke-miterlimit="10"/>
<path d="M8.18941 20.4736H37.876C38.4902 20.4736 39.1044 20.6783 39.5139 21.2925L42.5849 25.3872C43.6086 26.8203 42.5849 28.663 40.9471 28.663H11.2604C10.6462 28.663 10.032 28.4582 9.62255 27.844L6.55152 23.7493C5.52785 22.3162 6.55152 20.4736 8.18941 20.4736Z" stroke="#FFA503" stroke-width="2.10585" stroke-miterlimit="10"/>
<path d="M40.9471 33.7812H11.2605C10.6463 33.7812 10.0321 33.986 9.62261 34.6002L6.55159 38.6949C5.52791 40.128 6.55158 41.9707 8.18947 41.9707H37.8761C38.4903 41.9707 39.1045 41.7659 39.514 41.1517L42.585 37.057C43.6087 35.6239 42.585 33.7812 40.9471 33.7812Z" stroke="#FFA503" stroke-width="2.10585" stroke-miterlimit="10"/>
</svg>
