<svg width="33" height="33" viewBox="0 0 33 33" fill="none" xmlns="http://www.w3.org/2000/svg">
<path d="M9.6302 12.7417L15.9513 9.97621C16.2147 9.84452 16.478 9.84452 16.8731 9.97621L23.1942 12.7417C23.7209 13.0051 24.2477 12.3466 23.8526 11.8199L17.2682 3.78682C16.8731 3.26007 16.083 3.26007 15.6879 3.78682L9.10344 11.8199C8.57669 12.3466 9.10344 13.0051 9.6302 12.7417Z" stroke="white" stroke-width="1.80602" stroke-miterlimit="10" stroke-linecap="round" stroke-linejoin="round"/>
<path d="M9.6302 20.3796L15.9513 23.1451C16.2147 23.2768 16.478 23.2768 16.8731 23.1451L23.1942 20.3796C23.7209 20.1162 24.2477 20.7747 23.8526 21.3014L17.2682 29.3345C16.8731 29.8612 16.083 29.8612 15.6879 29.3345L9.10344 21.3014C8.57669 20.7747 9.10344 20.1162 9.6302 20.3796Z" stroke="white" stroke-width="1.80602" stroke-miterlimit="10" stroke-linecap="round" stroke-linejoin="round"/>
<path d="M16.3464 13.1367L9.49854 16.5607L16.3464 19.9846L23.1942 16.5607L16.3464 13.1367Z" stroke="white" stroke-width="1.80602" stroke-miterlimit="10" stroke-linecap="round" stroke-linejoin="round"/>
</svg>
